<?xml version="1.0" encoding="UTF-8"?>
<svg id="svg1" xmlns="http://www.w3.org/2000/svg" version="1.1" xmlns:inkscape="http://www.inkscape.org/namespaces/inkscape" xmlns:sodipodi="http://sodipodi.sourceforge.net/DTD/sodipodi-0.dtd" xmlns:svg="http://www.w3.org/2000/svg" viewBox="0 0 300 300">
  <!-- Generator: Adobe Illustrator 29.6.1, SVG Export Plug-In . SVG Version: 2.1.1 Build 9)  -->
  <defs>
    <style>
      .st0 {
        fill: #9f7028;
      }

      .st1 {
        fill: #fde872;
      }
    </style>
  </defs>
  <sodipodi:namedview id="namedview1" bordercolor="#000000" borderopacity="0.25" inkscape:current-layer="layer1" inkscape:cx="209.7166" inkscape:cy="231.98381" inkscape:deskcolor="#d1d1d1" inkscape:document-units="mm" inkscape:pagecheckerboard="0" inkscape:pageopacity="0.0" inkscape:showpageshadow="2" inkscape:window-height="979" inkscape:window-maximized="1" inkscape:window-width="1680" inkscape:window-x="-8" inkscape:window-y="-8" inkscape:zoom="1.235" pagecolor="#ffffff"/>
  <g>
    <g>
      <path class="st0" d="M288.25,164.6c-3.27-.39-6.62-.33-9.92-.28-8.73.14-17.99,1.06-26.69.61-.42-.02-3.11-.31-3.22-.46.16-.5.39-2.35.85-2.52.27-.1,1.29-.19,1.62-.19,2.86.03,6.16.65,9,.47.48-.03,1.37-.12,1.77-.33.56-.29,2.54-2.85,3.09-3.51,2.59-3.18,5.26-6.68,7.71-9.98.1-.14.36-.42.32-.58-1.35.22-2.96.21-4.36.15-2.13-.08-4.47-.52-6.6-.46-.49.01-1.81.15-2.21.34-.45.22-1.23,1.26-1.6,1.69-2.65,3.09-4.95,6.68-7.72,9.67-.46.5-1.99,2.14-2.56,2.24-18.73-.26-37.51.04-56.21-.45-1.63-.04-3.26.1-4.89-.06l-.14-.31c-.92-9.46-.82-19.04-2.12-28.47-.61-4.39-1.75-10.3-3.74-14.25-.25-.5-1.79-3.26-2.52-2.64-1.17,4.01-2.69,8.01-5.93,10.78-1.22,1.05-4.19,3.2-5.81,2.82-1.02-.24-.74-2.31-.71-3.2.19-6.59,1.36-12.46.59-19.17-2.78-24.1-19.02-47.59-33.72-66.13-2.54-3.2-5.06-6.48-8.09-9.23h-.45c1.04,5.3,1.45,10.77,2.44,16.08.29,1.55.88,3.15,1.14,4.71.71,4.18,1.09,9.06,1.52,13.33,1.17,11.75,2.13,23.68-.37,35.31-.37,1.74-1.06,4.96-2,6.4-.57.87-.82.96-1.78.52-4.16-1.92-8.64-12.25-10.97-16.32-.28-.49-.93-1.74-1.46-1.85-1.49-.29-1.65,1.69-1.72,2.77-.4,5.74.23,13.06.61,18.9,1.1,16.83,4.09,33.48,8.38,49.75-.68.92-2.01-.19-2.76-.65-7.12-4.37-9.27-9.89-13.89-16.24-.39-.53-2.23-3.09-2.74-3.1l-1.43,20.24H29.91c-.63,0-1.86,1.39-1.96,2.09-.07.54.66,1.96,1.06,1.96h69.49c-.1,1.52-.34,3.05-.45,4.57-1.99,27.09,1.27,54.45,19.26,75.79,7.54,8.94,17.83,17.2,30.21,12.36,12.33-4.81,25.31-24.6,30.21-36.51,7.3-17.77,8.05-37.22,8.93-56.22h62.07c2.42,3.43,5.05,6.79,7.8,9.97.81.94,3.53,4.21,4.46,4.54,1.38.48,6.66.2,8.34.02.34-.04,2.31-.31,2.35-.52.09-.42-.55-1.06-.83-1.41-1.65-2.08-3.8-3.98-5.55-5.99-.6-.68-3.76-4.29-3.21-5.08,1-.57,2.26,1.06,2.91,1.78,2.59,2.87,4.74,6.41,7.27,9.37.57.66,1.28,1.7,2.12,1.93,1.97.51,4.61-.16,6.64-.2.7-.02,1.35.16,2.03.08l-8.82-12.17-.17-.95c.35.02.75-.06,1.09.03,1.19.33,7.73,9.89,9.26,11.58,1.35,1.5,1.98,1.43,3.97,1.58,2.96.22,7.45.36,10.32-.17.45-.08.9-.18,1.3-.43v-.15l-11.75-14.27Z"/>
      <path class="st0" d="M25.24,162.77c.07-1.62,3.48-5.64,4.37-7.44,1.86-3.77-.73-4-3.75-3.15-3.89,1.09-8.28,2.93-12.1,4.39-3.71,1.41-7.91,2.88-11.46,4.58-1.14.55-1.86.81-2.3,2.13v1.5c1.18.99,2.82,1.65,4.25,2.28,6.41,2.82,14.12,5.67,20.83,7.66.89.26,3.4,1.12,4.13.92,2.02-.57.7-3.49.11-4.71-.89-1.85-4.15-6.38-4.08-8.14Z"/>
      <path class="st0" d="M278.56,158.4c-.4.48-2.37,2.4-2.48,2.63-.17.37.1.73.38.97h11.84c.42-.15,1.78-1.72,2.18-2.17,1.65-1.84,3.35-3.97,4.86-5.93.44-.57,4.42-5.71,4.05-6.06-1.32.2-2.78.21-4.13.16-2.55-.1-5.23-.69-7.78-.29-1.08.17-2.24,1.91-2.93,2.77-2.07,2.58-3.88,5.39-6.01,7.94Z"/>
      <path class="st0" d="M264.19,161.52c.06.39.27.52.64.57,1.21.15,2.96,0,4.2-.02.98,0,3.8.19,4.48-.16.33-.17,1.42-1.36,1.74-1.71,2.57-2.88,4.73-6.44,7.2-9.44.66-.79,1.6-1.58,2.17-2.33.12-.15.29-.19.22-.45-3.29-.22-6.61-.52-9.89-.07-3.03,3.31-6.08,6.83-8.76,10.43-.43.57-2.09,2.62-2.01,3.17Z"/>
    </g>
    <path class="st0" d="M3.6,166.79c5.69-.53,11.26.49,16.29,3.13,1.2.63,2.72.31,3.42-.9.66-1.13.3-2.79-.9-3.42-5.76-3.02-12.32-4.42-18.81-3.82-1.34.12-2.5,1.06-2.5,2.5,0,1.26,1.15,2.63,2.5,2.5h0Z"/>
    <path class="st0" d="M136.1,237.56c-2.69-.54-3.99-4.13-5.16-6.26-1.81-3.3-3.59-6.63-5.23-10.02-2.83-5.86-5.33-12.61-3.13-19.08h-4.82c2.01,4.94,4.65,9.48,7.98,13.65,2.84,3.55,7.02,7.79,12.04,5.9,2.67-1,3.75-3.31,4.55-5.87.85-2.73,1.62-5.49,2.3-8.26,1.34-5.47,2.34-11,3.04-16.59.8-6.31,1.16-12.66,1.12-19.01l-4.91.66c1.09,3.97,2.17,7.93,3.26,11.9.96,3.5,1.6,7.49,3.5,10.64.96,1.6,2.43,3.26,4.34,3.6,2.22.39,3.75-1.16,4.77-2.92,2.04-3.52,4-7.08,5.94-10.65,2.21-4.07,4.36-8.18,6.47-12.31,1.23-2.41-1.93-5.24-3.93-3.03-3.9,4.33-4.14,10.18-4.63,15.7s-1.07,11.18-1.95,16.73c-1.73,10.85-4.62,21.7-10.52,31.08-3.06,4.87-7.08,9.78-12.76,11.58-3.06.97-1.75,5.8,1.33,4.82,5.51-1.75,9.77-5.65,13.2-10.18s6.13-9.81,8.23-15.19c4.2-10.78,5.84-22.37,7-33.81.32-3.16.53-6.32.89-9.48.3-2.7.88-5.64,2.75-7.71l-3.93-3.03c-2.07,4.06-4.18,8.09-6.35,12.09-1.08,2-2.18,4-3.29,5.98-.52.92-1.03,1.84-1.56,2.76-.28.5-.56.99-.84,1.48-.1.17-.73,1.01-.68,1.19-.02.03-.03.07-.03.1,1,.18,1.22.07.67-.32-.19-.25-.4-.44-.59-.69-.48-.69-.81-1.46-1.08-2.25-.69-1.99-1.17-4.06-1.73-6.1-1.22-4.44-2.44-8.89-3.65-13.33-.74-2.7-4.93-2.18-4.91.66.07,9.79-.85,19.57-2.83,29.16-.99,4.79-2.21,9.56-3.72,14.21-.46,1.43-1.27,2.14-2.82,1.65-1.74-.55-3.04-2.21-4.18-3.55-3.19-3.74-5.81-8.06-7.67-12.61-.92-2.25-3.98-2.48-4.82,0-2.64,7.77.23,15.89,3.64,22.93,1.82,3.76,3.8,7.44,5.82,11.09,1.73,3.12,3.74,6.72,7.55,7.49,1.32.26,2.7-.38,3.08-1.75.34-1.23-.42-2.81-1.75-3.08h0Z"/>
    <path class="st1" d="M8.08,167.09c2.25.63,4.5.44,6.77.14,1.08-.14,1.69-.26,2.88-.33.51-.03,1.01-.05,1.52-.02-.01,0,.79.07.43.02.27.04.54.1.81.17l-1.49-1.15c1.11,2.51,2.7,4.78,4.61,6.74.94.97,2.59.95,3.54,0s.95-2.57,0-3.54c-1.23-1.25-2.02-2.29-2.9-3.84-.49-.86-.8-1.96-1.58-2.58-.88-.7-2.34-.76-3.42-.81-.83-.04-1.67.02-2.5.11-.48.05-.97.12-1.45.18-.3.04-.59.08-.89.12-.06,0-.43.06-.18.02-.88.12-1.76.21-2.64.22-.41,0-.82,0-1.23-.04.27.03-.06,0-.15-.02-.27-.05-.54-.12-.8-.19-1.26-.35-2.78.43-3.08,1.75s.4,2.7,1.75,3.08h0Z"/>
    <path class="st1" d="M146.93,161.07c5.34-13.7,4.19-28.73,2.94-43.06-.12-1.35-1.07-2.5-2.5-2.5-1.31,0-2.56,1.14-2.5,2.5.2,4.47,1.45,8.73,2.67,13s2.1,8.22,2.6,12.43c1.02,8.58.63,17.28-1.21,25.72-.68,3.14,4.14,4.48,4.82,1.33,1.9-8.71,2.44-17.71,1.44-26.58-.5-4.43-1.32-8.8-2.52-13.1-1.17-4.21-2.61-8.4-2.81-12.8h-5c1.21,13.92,2.42,28.42-2.77,41.73-.49,1.26.54,2.74,1.75,3.08,1.42.39,2.58-.48,3.08-1.75h0Z"/>
    <path class="st1" d="M169.49,159.64c2.65-2.31,4.14-5.55,5.21-8.84,1.23-3.77,2.19-7.65,3.26-11.47l-4.91-.66c1.32,16.44,1.5,32.96.55,49.43-.19,3.21,4.82,3.2,5,0,.95-16.47.77-32.99-.55-49.43-.22-2.71-4.11-3.51-4.91-.66-1,3.58-1.93,7.18-3.02,10.73-.85,2.76-1.94,5.43-4.16,7.37-1.02.89-.91,2.63,0,3.54,1.01,1.01,2.52.89,3.54,0h0Z"/>
    <path class="st1" d="M130.78,132.22c-2.79-4.61-5.57-9.23-8.36-13.84-1.18-1.96-4.97-1.33-4.66,1.26,2.25,18.99,5.82,37.81,10.76,56.29.83,3.11,5.65,1.79,4.82-1.33-4.82-18.04-8.39-36.42-10.58-54.96l-4.66,1.26,8.36,13.84c1.66,2.75,5.99.24,4.32-2.52h0Z"/>
    <path class="st1" d="M112.78,172.69c-1.45-.13-2.44-2.29-2.97-3.44-1.09-2.4-1.84-4.98-2.43-7.55-.3-1.32-1.81-2.09-3.08-1.75-1.4.38-1.99,1.74-1.75,3.08,2.75,15.35-2.22,32.87,7.88,46.34.81,1.08,2.16,1.63,3.42.9,1.06-.62,1.71-2.33.9-3.42-4.32-5.76-5.71-12.91-6.08-19.95-.45-8.41.21-16.84-1.29-25.19l-4.82,1.33c.76,3.29,1.78,6.7,3.41,9.69,1.46,2.69,3.68,4.7,6.81,4.98,1.35.12,2.5-1.23,2.5-2.5,0-1.45-1.15-2.38-2.5-2.5h0Z"/>
    <path class="st1" d="M140.91,112.86c7.18-12.41,7.7-27.09,7.98-41.05l-4.91.66c4.97,15.89,7.98,32.36,8.85,48.98.25,4.77.33,9.54.24,14.31-.06,3.22,4.94,3.22,5,0,.3-17-1.53-34.04-5.43-50.59-1.11-4.72-2.4-9.4-3.85-14.03-.84-2.68-4.85-2.2-4.91.66-.27,13.06-.57,26.91-7.3,38.53-1.62,2.79,2.7,5.31,4.32,2.52h0Z"/>
    <path class="st1" d="M128.31,202.98c-.95.59-3.06-4.99-3.36-5.64-1.38-3.02-2.77-6.04-4.15-9.07-1.09-2.38-4.59-1.03-4.66,1.26-.26,8.59.95,17.27,2.28,25.74.63,4,1.61,7.91,3.51,11.52s4.37,6.57,6.91,9.56c3.19,3.75,6.4,7.48,9.6,11.22.88,1.03,2.63.9,3.54,0,1.02-1.02.88-2.51,0-3.54-2.75-3.22-5.51-6.44-8.26-9.65-2.35-2.75-4.74-5.48-6.61-8.59-3.92-6.52-4.37-14.68-5.22-22.08-.54-4.71-.89-9.44-.75-14.18l-4.66,1.26c1.8,3.93,3.6,7.86,5.4,11.79.79,1.73,1.68,3.55,3.37,4.59s3.86,1.2,5.58.12c2.73-1.7.22-6.03-2.52-4.32h0Z"/>
    <path class="st1" d="M154.64,194.32c4.89-8.46,8.78-17.49,11.6-26.85h-4.82c2.31,16.5.41,33.53-5.18,49.2-1.6,4.48-3.52,8.83-5.74,13.04-1.49,2.85,2.82,5.38,4.32,2.52,8.23-15.67,12.58-33.3,12.54-51.01-.01-5.05-.42-10.08-1.12-15.08-.15-1.07-1.42-1.84-2.41-1.84-1.12,0-2.09.78-2.41,1.84-2.7,8.96-6.41,17.55-11.1,25.65-1.61,2.79,2.71,5.31,4.32,2.52h0Z"/>
    <path class="st1" d="M136.45,196.11c4.48-5.92,7.4-12.99,8.39-20.34l-3.67,1.49c.6.29.61,1.27.69,1.97.2,1.65.39,3.3.58,4.95.39,3.3.78,6.59,1.17,9.89.78,6.59,1.56,13.19,2.34,19.78.16,1.34,1.04,2.5,2.5,2.5,1.23,0,2.66-1.15,2.5-2.5-.86-7.25-1.72-14.51-2.57-21.76-.43-3.63-.86-7.25-1.29-10.88-.34-2.88-.34-6.81-3.4-8.26-1.27-.6-3.44-.25-3.67,1.49-.95,7-3.63,13.51-7.89,19.14-.82,1.08-.17,2.8.9,3.42,1.28.75,2.6.18,3.42-.9h0Z"/>
  </g>
</svg>